<svg width="86" height="80" viewBox="0 0 86 80" fill="none" xmlns="http://www.w3.org/2000/svg">
<g clip-path="url(#clip0_10_350)">
<path d="M62.2639 47.6617C60.0197 55.54 51.4123 60.2158 43.0372 58.1042C34.6641 55.9937 29.6938 47.8953 31.9375 40.0175C34.1818 32.1393 42.7891 27.4642 51.163 29.575C59.5382 31.6864 64.5076 39.7833 62.2639 47.6617ZM70.6938 37.8754C68.825 31.994 69.2354 24.5034 70.9492 18.2862C73.0036 10.8337 67.5079 2.52965 59.4446 0.497309C51.2281 -1.57347 42.1091 3.01184 39.9489 10.7365C38.294 16.6553 34.943 22.4725 30.6062 26.849C25.6829 31.7134 19.4193 35.1711 12.3986 36.9406C3.84513 39.0968 -1.23525 47.3822 1.0573 55.4312C3.35184 63.4781 12.1458 68.2578 20.7032 66.0987C27.0907 64.565 34.6354 64.1972 40.7869 66.0065C48.236 68.1978 53.2742 70.9718 58.9044 76.1531C64.9949 81.7581 75.0359 80.9683 80.8145 75.5333C86.6797 70.0176 87.2178 60.5067 81.3593 54.7836C76.4165 49.9551 73.0015 45.1376 70.6936 37.8754H70.6938Z" fill="url(#paint0_linear_10_350)"/>
</g>
<defs>
<linearGradient id="paint0_linear_10_350" x1="85.4927" y1="59.7402" x2="1.124" y2="54.1807" gradientUnits="userSpaceOnUse">
<stop stop-color="#9C2CAD"/>
<stop offset="1" stop-color="#ED6374"/>
</linearGradient>
<clipPath id="clip0_10_350">
<rect width="85.0384" height="80" fill="white" transform="translate(0.480774)"/>
</clipPath>
</defs>
</svg>
