<svg width="97" height="69" viewBox="0 0 97 69" fill="none" xmlns="http://www.w3.org/2000/svg">
<path d="M68.7817 46.8761C68.7817 47.7512 68.5231 48.6067 68.0386 49.3343C67.5542 50.062 66.8655 50.6291 66.0599 50.964C65.2542 51.2989 64.3677 51.3866 63.5125 51.2158C62.6572 51.0451 61.8715 50.6237 61.2549 50.0049C60.6383 49.386 60.2184 48.5976 60.0483 47.7393C59.8781 46.881 59.9654 45.9913 60.2992 45.1828C60.6329 44.3742 61.198 43.6832 61.9231 43.197C62.6481 42.7108 63.5006 42.4513 64.3726 42.4513C65.542 42.4513 66.6634 42.9175 67.4903 43.7473C68.3172 44.5771 68.7817 45.7025 68.7817 46.8761ZM32.6273 42.4513C31.7552 42.4513 30.9028 42.7108 30.1777 43.197C29.4526 43.6832 28.8875 44.3742 28.5538 45.1828C28.2201 45.9913 28.1328 46.881 28.3029 47.7393C28.473 48.5976 28.8929 49.386 29.5096 50.0049C30.1262 50.6237 30.9118 51.0451 31.7671 51.2158C32.6224 51.3866 33.5089 51.2989 34.3145 50.964C35.1202 50.6291 35.8088 50.062 36.2933 49.3343C36.7777 48.6067 37.0363 47.7512 37.0363 46.8761C37.0363 45.7025 36.5718 44.5771 35.7449 43.7473C34.9181 42.9175 33.7966 42.4513 32.6273 42.4513ZM96.9998 52.1858V62.8053C96.9998 64.4482 96.3495 66.0239 95.1918 67.1856C94.0342 68.3473 92.4642 69 90.8271 69H6.17279C4.53568 69 2.96563 68.3473 1.80802 67.1856C0.650414 66.0239 7.6927e-05 64.4482 7.6927e-05 62.8053V52.6725C-0.012033 45.8178 1.40575 39.0364 4.16222 32.7646C6.91868 26.4929 10.9528 20.8696 16.005 16.2565L4.32097 4.4866C4.07779 4.24255 3.88489 3.95282 3.75328 3.63396C3.62167 3.31509 3.55393 2.97333 3.55393 2.62819C3.55393 2.28305 3.62167 1.94129 3.75328 1.62242C3.88489 1.30356 4.07779 1.01383 4.32097 0.769779C4.56416 0.525729 4.85286 0.332138 5.17059 0.200059C5.48833 0.0679804 5.82887 -5.14297e-09 6.17279 0C6.5167 5.14297e-09 6.85725 0.0679804 7.17498 0.200059C7.49272 0.332138 7.78142 0.525729 8.0246 0.769779L20.1055 12.8494C28.2871 6.81327 38.169 3.54371 48.3236 3.51315H48.4999C58.7317 3.48315 68.7074 6.72208 76.9826 12.761L88.9753 0.769779C89.4664 0.276898 90.1325 -1.79903e-08 90.8271 0C91.5217 1.79903e-08 92.1878 0.276898 92.6789 0.769779C93.17 1.26266 93.4459 1.93115 93.4459 2.62819C93.4459 3.32523 93.17 3.99372 92.6789 4.4866L81.083 16.168C81.6562 16.6548 82.1853 17.1857 82.7144 17.7167C87.2564 22.2227 90.8589 27.5913 93.3116 33.5094C95.7642 39.4274 97.018 45.7763 96.9998 52.1858ZM91.7089 52.1858C91.7089 40.6852 87.1565 29.6557 79.0533 21.5236C70.95 13.3915 59.9597 8.82289 48.4999 8.82289H48.3677C24.6027 8.91139 5.29097 28.6017 5.29097 52.6725V62.8053C5.29097 63.04 5.38388 63.2651 5.54925 63.4311C5.71462 63.597 5.93891 63.6903 6.17279 63.6903H90.8271C91.061 63.6903 91.2853 63.597 91.4506 63.4311C91.616 63.2651 91.7089 63.04 91.7089 62.8053V52.1858Z" fill="url(#paint0_linear_10_354)"/>
<defs>
<linearGradient id="paint0_linear_10_354" x1="97" y1="51.526" x2="1.01594" y2="43.156" gradientUnits="userSpaceOnUse">
<stop stop-color="#9C2CAD"/>
<stop offset="1" stop-color="#ED6374"/>
</linearGradient>
</defs>
</svg>
