<svg width="74" height="90" viewBox="0 0 74 90" fill="none" xmlns="http://www.w3.org/2000/svg">
<path d="M72.1686 62.834C69.1967 61.5656 66.6631 59.4475 64.8837 56.744C63.1043 54.0406 62.1579 50.8715 62.1627 47.632C62.1969 44.7515 62.9615 41.927 64.3846 39.4247C65.8076 36.9224 67.8422 34.8244 70.2967 33.3285C70.5395 33.1779 70.7492 32.9796 70.9134 32.7454C71.0776 32.5113 71.1928 32.2462 71.252 31.9662C71.3112 31.6862 71.3133 31.397 71.258 31.1162C71.2028 30.8354 71.0914 30.5687 70.9306 30.3322C69.0147 27.5626 66.4825 25.2783 63.5343 23.66C60.586 22.0417 57.3027 21.1339 53.9442 21.0084C53.2171 20.9342 52.4857 20.9115 51.7554 20.9406C56.0765 15.776 58.2038 9.11647 57.6795 2.3948C57.6373 1.85531 57.3848 1.35426 56.9766 1.00039C56.5684 0.646517 56.0375 0.468375 55.4992 0.504619C49.6125 1.0454 44.0841 3.57826 39.8224 7.6871C35.5607 11.7959 32.8191 17.2364 32.0479 23.1148C29.3762 21.9218 26.4952 21.2722 23.5716 21.2034C19.6261 21.3184 15.7771 22.4542 12.3982 24.5007C9.01927 26.5472 6.22505 29.4348 4.28662 32.8835C-3.25583 46.0216 1.46401 65.8558 9.73746 77.8538C12.9488 82.5114 17.7701 89.5 24.5266 89.5L24.8984 89.4958C27.2711 89.3523 29.5919 88.7386 31.7267 87.6903C33.883 86.6171 36.2537 86.0477 38.6607 86.0248C40.9425 86.046 43.1946 86.5969 45.2313 87.631C47.5445 88.7562 50.0763 89.3567 52.647 89.3898C59.6401 89.2627 63.8867 83.0454 67.2924 78.053C69.9281 74.1645 71.9876 69.9133 73.4067 65.432C73.5627 64.9215 73.522 64.3709 73.2928 63.8891C73.0635 63.4073 72.6624 63.0292 72.1686 62.8298V62.834ZM41.4284 12.1339C44.6179 8.52083 48.8712 6.01972 53.5724 4.99274C53.381 9.91249 51.5545 14.6267 48.3835 18.3851C46.7167 20.3832 44.6916 22.0507 42.4129 23.3012L42.3369 23.3436L41.8298 23.547C40.4694 24.184 39.0297 24.6345 37.5494 24.8863C37.0803 24.8666 36.6158 24.7854 36.1677 24.6447C36.5394 20.0168 38.3836 15.6311 41.4284 12.1339ZM63.8022 75.6627C60.0458 81.1722 57.0415 85.0754 52.5709 85.156C50.6022 85.1153 48.6675 84.6331 46.9088 83.7447C44.342 82.4766 41.522 81.8086 38.6607 81.7909C35.6841 81.8089 32.7492 82.4938 30.0704 83.7955C28.4061 84.6309 26.5941 85.1291 24.7378 85.2619L24.5223 85.2662C20.3391 85.2662 16.7813 80.6255 13.2108 75.4508C6.75851 66.0846 0.855541 47.3523 7.95009 35.0026C9.52249 32.1874 11.7937 29.8277 14.5434 28.1525C17.2931 26.4773 20.4278 25.5434 23.6434 25.4415H23.8209C26.4958 25.639 29.1122 26.3256 31.5408 27.4673C32.0986 27.6876 32.6479 27.908 33.1888 28.1115C33.2902 28.1581 33.3958 28.1962 33.5057 28.2259C34.7902 28.7556 36.1593 29.0565 37.5494 29.1244C39.5735 28.9249 41.547 28.3712 43.3806 27.4885C46.5713 25.9249 50.0898 25.1531 53.64 25.238C56.0096 25.321 58.3386 25.8799 60.4891 26.8815C62.6396 27.8832 64.5679 29.3073 66.16 31.0696C63.6037 33.0122 61.531 35.5225 60.1043 38.4034C58.6777 41.2844 57.9359 44.4577 57.9373 47.6744C57.9246 51.4146 58.929 55.0875 60.8425 58.2979C62.7559 61.5082 65.506 64.1344 68.7967 65.8939C67.5369 69.343 65.8595 72.6238 63.8022 75.6627Z" fill="url(#paint0_linear_10_362)"/>
<defs>
<linearGradient id="paint0_linear_10_362" x1="73.5" y1="66.961" x2="0.903215" y2="63.2674" gradientUnits="userSpaceOnUse">
<stop stop-color="#9C2CAD"/>
<stop offset="1" stop-color="#ED6374"/>
</linearGradient>
</defs>
</svg>
