<svg width="100" height="60" viewBox="0 0 100 60" fill="none" xmlns="http://www.w3.org/2000/svg">
<path d="M100 57.45C98.5446 58.0005 96.938 57.9993 95.4834 57.4466C94.0289 56.894 92.8268 55.8281 92.1041 54.45L77.7292 34.5709L75.6458 31.7917L58.9667 54.475C58.2874 55.7952 57.1506 56.8229 55.7687 57.3658C54.3869 57.9087 52.8546 57.9298 51.4583 57.425L72.95 28.5917L52.9583 2.54585C54.3958 2.02783 55.9679 2.02096 57.4098 2.5264C58.8518 3.03184 60.0755 4.01872 60.875 5.32085L75.775 25.4458L90.7583 5.40418C91.4428 4.10746 92.5799 3.10746 93.9535 2.5943C95.327 2.08114 96.8413 2.09058 98.2083 2.62085L90.45 12.9167L79.9417 26.5958C79.6498 26.8562 79.4163 27.1752 79.2564 27.5321C79.0965 27.889 79.0139 28.2756 79.0139 28.6667C79.0139 29.0577 79.0965 29.4444 79.2564 29.8013C79.4163 30.1581 79.6498 30.4772 79.9417 30.7375L99.9583 57.4542L100 57.45ZM0.00832228 28.2334L1.75832 19.5875C6.56666 2.49168 26.1667 -4.62082 39.65 5.96252C47.5458 12.1667 49.5167 20.95 49.1292 30.85H4.64999C3.92916 48.5292 16.6875 59.2042 33 53.75C35.6444 52.7981 38.0114 51.2052 39.889 49.1138C41.7665 47.0225 43.096 44.498 43.7583 41.7667C44.6208 38.9917 46.0417 38.5167 48.65 39.3167C48.2153 42.7016 47.0188 45.9439 45.1503 48.7997C43.2818 51.6554 40.7901 54.0503 37.8625 55.8042C33.0267 58.4493 27.4784 59.4977 22.0109 58.7995C16.5434 58.1013 11.4367 55.6922 7.42082 51.9167C3.45011 47.4475 1.05031 41.8021 0.587489 35.8417C0.587489 34.8625 0.254156 33.9459 0.0291556 33.0667C0.00887241 31.457 -0.000850023 29.8473 -1.10507e-05 28.2375L0.00832228 28.2334ZM4.70416 27.0417H44.9292C44.6792 14.225 36.5917 5.13335 25.8042 5.05002C13.7958 4.88335 5.20416 13.775 4.67499 26.9834L4.70416 27.0417Z" fill="url(#paint0_linear_301_11)"/>
<defs>
<linearGradient id="paint0_linear_301_11" x1="100" y1="44.3156" x2="1.42144" y2="33.7772" gradientUnits="userSpaceOnUse">
<stop stop-color="#9C2CAD"/>
<stop offset="1" stop-color="#ED6374"/>
</linearGradient>
</defs>
</svg>
