<svg width="100" height="80" viewBox="0 0 100 80" fill="none" xmlns="http://www.w3.org/2000/svg">
<path d="M42.3491 21.0897H27.0724C19.3656 19.0575 1.93097 19.5864 1.93097 35.579C1.93097 41.4084 4.82101 45.5039 8.67439 47.3967C3.8384 51.8526 1.54563 53.9546 1.54563 56.9303C1.54563 59.0614 2.40687 61.0258 4.99249 62.1243C2.2431 64.7222 0.676697 66.6092 0.676697 70.1545C0.676697 76.3753 6.08107 80 20.2577 80C33.889 80 41.7962 74.8816 41.7962 65.8226C41.7962 54.4583 33.0952 54.8767 12.5817 53.6175L15.1693 49.4425C20.4234 50.911 38.0391 51.3799 38.0391 36.29C38.0391 32.6672 36.5498 30.1468 35.1491 28.3334L42.3568 27.7832L42.3491 21.0897ZM30.13 67.9537C30.13 74.1648 9.92096 74.1725 9.92096 68.4245C9.92096 66.8475 10.9363 65.5185 11.9575 64.2515C26.9298 65.2782 30.13 64.9043 30.13 67.9537ZM20.3405 41.8811C10.1676 41.8811 10.6184 28.0951 20.5717 28.0951C30.1165 28.0951 30.3632 41.8811 20.3405 41.8811ZM46.0233 61.3532V55.1344C51.1772 54.4253 51.2716 54.7469 51.2716 53.0033V29.8503C51.2716 28.2036 50.8766 28.4206 46.0233 26.7002L46.8845 20.3226H63.1015V53.0072C63.1015 54.2684 63.1786 54.4253 64.3558 54.5842L68.3498 55.1344V61.3532H46.0233ZM56.1288 14.0224C51.6647 14.0224 49.079 11.4205 49.079 6.92982C49.079 2.4391 51.6647 0 56.1288 0C60.6719 0 63.2576 2.44491 63.2576 6.92982C63.2576 11.4147 60.6719 14.0224 56.1288 14.0224ZM99.3233 58.3C95.9535 59.9525 91.0193 61.4501 86.5532 61.4501C77.2319 61.4501 73.7079 57.6723 73.7079 48.7683V28.1339C73.7079 27.0838 73.9102 27.3473 67.5984 27.3473V20.3361C74.4921 19.5476 77.2319 16.074 78.0931 7.49746H85.5359C85.5359 20.2509 85.2777 19.4721 86.164 19.4721H97.2039V27.3473H85.5359V46.1684C85.5359 47.5091 84.588 56.1282 97.2059 51.3682L99.3233 58.3Z" fill="url(#paint0_linear_10_240)"/>
<defs>
<linearGradient id="paint0_linear_10_240" x1="99.3233" y1="59.7402" x2="1.5397" y2="52.261" gradientUnits="userSpaceOnUse">
<stop stop-color="#9C2CAD"/>
<stop offset="1" stop-color="#ED6374"/>
</linearGradient>
</defs>
</svg>
