<svg width="100" height="100" viewBox="0 0 100 100" fill="none" xmlns="http://www.w3.org/2000/svg">
<path d="M0 0V100H100V0H0ZM15.5125 12.9531H36.3469V20.6031H30.55V46.7625H36.3469V54.3969H15.5125V46.7625H21.5344V20.6031H15.5125V12.9531ZM61.5719 12.9531H70.8344V40.0375C70.8344 42.5969 70.6063 44.6781 69.9063 46.5344C69.2596 48.2797 68.2314 49.8588 66.8969 51.1563C65.7375 52.3156 64.1313 53.4844 62.2719 53.9406C60.3565 54.7064 58.3127 55.0998 56.25 55.1C53.0125 55.1 50.2281 54.4 48.1469 53.2406C46.131 52.0966 44.3292 50.6109 42.8219 48.85L48.6187 42.3719C49.7719 43.7563 50.9312 44.6844 52.0844 45.3844C53.2375 46.0687 54.6219 46.5375 56.0219 46.5375C57.65 46.5375 59.0188 46.0656 60.1875 44.9094C61.1 43.7563 61.5719 42.125 61.5719 39.5875V12.9531ZM9.2625 81.25H46.7625V87.5H9.2625V81.25Z" fill="url(#paint0_linear_108_2)"/>
<defs>
<linearGradient id="paint0_linear_108_2" x1="100" y1="74.6753" x2="0.677082" y2="68.5143" gradientUnits="userSpaceOnUse">
<stop stop-color="#9C2CAD"/>
<stop offset="1" stop-color="#ED6374"/>
</linearGradient>
</defs>
</svg>
