<svg width="79" height="87" viewBox="0 0 79 87" fill="none" xmlns="http://www.w3.org/2000/svg">
<path d="M35.9305 0.927915C37.0193 0.319466 38.246 0 39.4935 0C40.741 0 41.9677 0.319466 43.0565 0.927915L75.6133 19.3069C76.6333 19.8873 77.483 20.7251 78.0774 21.7366C78.6717 22.7481 78.9899 23.8978 79 25.0708V61.9375C78.98 63.1557 78.6314 64.3459 77.9909 65.3826C77.3503 66.4193 76.4417 67.2639 75.3608 67.8275L42.9215 86.1152C41.8122 86.7279 40.559 87.0325 39.292 86.9973C38.0251 86.9621 36.7907 86.5884 35.7172 85.9151L25.9836 80.2948C25.2711 79.9766 24.6312 79.5162 24.1031 78.9419C24.5166 78.3851 25.2567 78.3155 25.8574 78.0719C27.1918 77.5956 28.4786 76.9956 29.7012 76.2797C29.8551 76.189 30.0327 76.1463 30.2111 76.1572C30.3895 76.168 30.5606 76.2319 30.7024 76.3406C33.471 77.9284 36.2178 79.564 39.0037 81.1387C39.5958 81.4824 40.1965 81.0256 40.7015 80.7472C51.3172 74.7499 61.9344 68.7613 72.5531 62.7815C72.7425 62.687 72.8991 62.5377 73.0023 62.353C73.1056 62.1684 73.1508 61.9569 73.132 61.7461C73.1407 49.5863 73.1422 37.4249 73.1364 25.2622C73.1554 25.0258 73.1002 24.7895 72.9785 24.586C72.8568 24.3825 72.6746 24.222 72.4573 24.1268C61.679 18.0599 50.9037 11.9901 40.1312 5.91744C39.9441 5.78912 39.7225 5.72045 39.4956 5.72045C39.2687 5.72045 39.0472 5.78912 38.8601 5.91744C28.0847 11.9843 17.3123 18.0556 6.5427 24.1311C6.32413 24.2238 6.14039 24.383 6.01767 24.586C5.89495 24.7891 5.83952 25.0257 5.85927 25.2622V61.7461C5.84089 61.9561 5.88737 62.1667 5.99245 62.3495C6.09753 62.5323 6.25615 62.6785 6.44694 62.7684C9.31998 64.3982 12.1974 66.0223 15.0791 67.6405C15.8774 68.1336 16.7708 68.4528 17.7009 68.5772C18.6311 68.7017 19.577 68.6285 20.477 68.3626C21.2581 68.0689 21.9307 67.5436 22.4046 66.857C22.8784 66.1704 23.1308 65.3555 23.128 64.5215C23.1411 52.4283 23.1193 40.3351 23.1367 28.2507C23.1338 28.1224 23.158 27.9949 23.2076 27.8765C23.2573 27.7582 23.3314 27.6516 23.425 27.5638C23.5186 27.476 23.6298 27.4088 23.7511 27.3668C23.8724 27.3247 24.0013 27.3087 24.1292 27.3197C25.5135 27.311 26.8934 27.3023 28.2777 27.3241C28.4122 27.3304 28.5437 27.365 28.6639 27.4255C28.7841 27.486 28.8901 27.5712 28.9752 27.6755C29.0602 27.7797 29.1223 27.9007 29.1574 28.0306C29.1924 28.1604 29.1998 28.2962 29.1788 28.429C29.1745 40.5961 29.1919 52.7633 29.1701 64.926C29.2629 66.5795 28.91 68.2275 28.1481 69.6981C27.3863 71.1688 26.2434 72.4081 24.8388 73.2869C22.9629 74.1602 20.9095 74.5853 18.8409 74.5287C16.7722 74.4721 14.7452 73.9352 12.92 72.9606C9.75529 71.3815 6.73859 69.5241 3.63484 67.8275C2.55384 67.2645 1.64532 66.4198 1.00545 65.3829C0.365579 64.3461 0.0181689 63.1556 0 61.9375V25.0708C0.00928198 23.8742 0.338702 22.7019 0.954103 21.6754C1.5695 20.6489 2.44848 19.8056 3.49989 19.233C14.313 13.1342 25.1246 7.0325 35.9348 0.927915H35.9305Z" fill="url(#paint0_linear_10_227)"/>
<path d="M45.3636 26.4628C50.142 25.8459 54.9975 26.5893 59.3719 28.6074C60.9571 29.5523 62.2678 30.8947 63.1741 32.5016C64.0804 34.1085 64.5509 35.9241 64.539 37.7686C64.4778 37.9993 64.3354 38.2002 64.1378 38.3345C63.9403 38.4687 63.701 38.5273 63.4638 38.4994C62.0926 38.4994 60.7257 38.5168 59.3588 38.4907C59.0949 38.4745 58.8467 38.3601 58.663 38.1701C58.4793 37.9801 58.3734 37.7282 58.3663 37.4641C58.211 36.571 57.863 35.7225 57.3466 34.9773C56.8302 34.2321 56.1577 33.6082 55.3757 33.1488C52.7733 32.1153 49.9627 31.7128 47.1745 31.9743C45.1196 31.9104 43.0871 32.4163 41.3022 33.4359C40.6875 33.9124 40.2377 34.5694 40.0159 35.3145C39.7942 36.0597 39.8117 36.8555 40.0659 37.5902C40.5056 38.6342 41.7114 38.9692 42.6995 39.2781C48.3847 40.7658 54.4093 40.6179 59.9813 42.5711C61.1784 42.904 62.2833 43.5064 63.2114 44.332C64.1395 45.1577 64.8661 46.1847 65.3356 47.3344C65.8943 48.9648 66.0292 50.7104 65.7276 52.4072C65.4261 54.104 64.6981 55.6965 63.6118 57.035C61.6466 59.0753 59.093 60.4516 56.3073 60.9718C52.6796 61.7085 48.9582 61.867 45.2809 61.4416C41.7518 61.2391 38.3684 59.9659 35.5822 57.7919C34.4785 56.7785 33.6123 55.5341 33.0457 54.1474C32.4791 52.7608 32.2259 51.2662 32.3043 49.7704C32.3317 49.5305 32.4526 49.311 32.6409 49.1595C32.8291 49.0081 33.0695 48.9368 33.3099 48.9613C34.6898 48.9482 36.0654 48.9439 37.4453 48.9613C37.573 48.959 37.6998 48.982 37.8185 49.0289C37.9372 49.0759 38.0454 49.1459 38.1369 49.2349C38.2283 49.3238 38.3013 49.43 38.3514 49.5474C38.4016 49.6647 38.428 49.7907 38.4291 49.9183C38.497 50.7711 38.739 51.6009 39.1403 52.3566C39.5416 53.1123 40.0937 53.7777 40.7624 54.3119C43.7128 55.7628 47.0098 56.3624 50.2826 56.0432C53.0227 56.2522 55.7582 55.5833 58.0921 54.1335C58.6299 53.6094 59.0213 52.954 59.2275 52.2321C59.4336 51.5103 59.4474 50.7472 59.2674 50.0184C58.9279 48.8003 57.6568 48.2348 56.5641 47.8651C50.9486 46.0902 44.863 46.7341 39.3041 44.733C38.1383 44.3912 37.0606 43.8008 36.1452 43.0025C35.2299 42.2041 34.4987 41.2169 34.002 40.1089C33.3636 38.4565 33.2023 36.6582 33.5363 34.9186C33.8703 33.179 34.6862 31.5681 35.8913 30.2691C38.5178 27.9513 41.8625 26.6073 45.3636 26.4628Z" fill="url(#paint1_linear_10_227)"/>
<defs>
<linearGradient id="paint0_linear_10_227" x1="79" y1="64.9675" x2="0.482092" y2="60.5449" gradientUnits="userSpaceOnUse">
<stop stop-color="#9C2CAD"/>
<stop offset="1" stop-color="#ED6374"/>
</linearGradient>
<linearGradient id="paint1_linear_10_227" x1="65.8844" y1="52.7037" x2="32.505" y2="50.7401" gradientUnits="userSpaceOnUse">
<stop stop-color="#9C2CAD"/>
<stop offset="1" stop-color="#ED6374"/>
</linearGradient>
</defs>
</svg>
