<svg width="96" height="96" viewBox="0 0 96 96" fill="none" xmlns="http://www.w3.org/2000/svg">
<path d="M81.3334 51.3333V50.22C81.3334 45.3133 77.3534 41.3333 72.4467 41.3333H64.6667C62.0145 41.3333 59.471 42.3869 57.5956 44.2622C55.7203 46.1376 54.6667 48.6812 54.6667 51.3333C54.6667 53.9855 55.7203 56.529 57.5956 58.4044C59.471 60.2797 62.0145 61.3333 64.6667 61.3333H71.3334C73.9855 61.3333 76.5291 62.3869 78.4044 64.2622C80.2798 66.1376 81.3334 68.6812 81.3334 71.3333C81.3334 73.9855 80.2798 76.529 78.4044 78.4044C76.5291 80.2797 73.9855 81.3333 71.3334 81.3333H64.6667C62.0145 81.3333 59.471 80.2797 57.5956 78.4044C55.7203 76.529 54.6667 73.9855 54.6667 71.3333M41.3334 38V71.3333C41.3334 73.9855 40.2798 76.529 38.4044 78.4044C36.5291 80.2797 33.9855 81.3333 31.3334 81.3333C28.6812 81.3333 26.1377 80.2797 24.2623 78.4044C22.3869 76.529 21.3334 73.9855 21.3334 71.3333M1.33337 1.33331H94.6667V94.6667H1.33337V1.33331Z" stroke="url(#paint0_linear_301_9)"/>
<defs>
<linearGradient id="paint0_linear_301_9" x1="94.6667" y1="71.0303" x2="1.96532" y2="65.28" gradientUnits="userSpaceOnUse">
<stop stop-color="#9C2CAD"/>
<stop offset="1" stop-color="#ED6374"/>
</linearGradient>
</defs>
</svg>
