<svg width="100" height="100" viewBox="0 0 100 100" fill="none" xmlns="http://www.w3.org/2000/svg">
<path d="M70.8333 95.8334H29.1666C26.9565 95.8334 24.8369 94.9554 23.2741 93.3926C21.7113 91.8298 20.8333 89.7102 20.8333 87.5V12.1375C20.9268 9.99082 21.8458 7.96318 23.3986 6.47794C24.9514 4.9927 27.0179 4.16466 29.1666 4.16669H70.8333C73.0435 4.16669 75.1631 5.04466 76.7259 6.60747C78.2887 8.17027 79.1667 10.2899 79.1667 12.5V87.5C79.1667 89.7102 78.2887 91.8298 76.7259 93.3926C75.1631 94.9554 73.0435 95.8334 70.8333 95.8334ZM29.1666 12.5V87.5H70.8333V12.5H62.5C62.5 14.7102 61.622 16.8298 60.0592 18.3926C58.4964 19.9554 56.3768 20.8334 54.1666 20.8334H45.8333C43.6232 20.8334 41.5036 19.9554 39.9408 18.3926C38.378 16.8298 37.5 14.7102 37.5 12.5H29.1666Z" fill="url(#paint0_linear_107_7)"/>
<defs>
<linearGradient id="paint0_linear_107_7" x1="79.1667" y1="72.619" x2="21.0958" y2="70.3268" gradientUnits="userSpaceOnUse">
<stop stop-color="#9C2CAD"/>
<stop offset="1" stop-color="#ED6374"/>
</linearGradient>
</defs>
</svg>
