<svg width="46" height="100" viewBox="0 0 46 100" fill="none" xmlns="http://www.w3.org/2000/svg">
<path d="M44.6375 39.8125C39.3708 16.5625 26.9208 8.92083 25.5833 6C24.4167 4.35833 23.375 2.025 22.5208 0C22.3708 2.0625 22.2917 2.85417 20.3417 4.93333C17.3292 7.29167 1.84999 20.275 0.591661 46.6833C-0.583339 71.3167 18.3833 85.9958 20.9583 87.8667L21.25 88.075C21.7862 92.0406 22.2446 96.0164 22.625 100H24.6292C25.1038 95.7006 25.8132 91.4303 26.7542 87.2083C28.4917 85.975 29.2708 85.2792 30.2958 84.3208C35.1498 79.8304 39.0074 74.3713 41.6192 68.2964C44.2311 62.2215 45.5389 55.6662 45.4583 49.0542C45.5 45.6625 45.0292 42.1292 44.6375 39.8125ZM22.4042 73.9583C22.4042 73.9583 22.4042 39.4125 23.55 39.4167C24.4375 39.4167 25.5917 83.9792 25.5917 83.9792C24.0042 83.7917 22.4042 76.6458 22.4042 73.9583Z" fill="url(#paint0_linear_301_5)"/>
<defs>
<linearGradient id="paint0_linear_301_5" x1="45.4618" y1="74.6753" x2="0.706543" y2="73.4282" gradientUnits="userSpaceOnUse">
<stop stop-color="#9C2CAD"/>
<stop offset="1" stop-color="#ED6374"/>
</linearGradient>
</defs>
</svg>
