<svg width="100" height="62" viewBox="0 0 100 62" fill="none" xmlns="http://www.w3.org/2000/svg">
<path d="M49.4219 61.625C49.0937 61.625 48.7656 61.5312 48.4688 61.375L45.4688 59.5937C45.0156 59.3437 45.2344 59.25 45.3906 59.2031C45.9844 59 46.1094 58.9531 46.75 58.5781C46.8125 58.5469 46.9063 58.5625 46.9688 58.5937L49.2812 59.9687C49.3594 60.0156 49.4844 60.0156 49.5625 59.9687L58.5938 54.75C58.6719 54.7031 58.7344 54.6094 58.7344 54.5V44.0781C58.7344 43.9687 58.6875 43.875 58.5938 43.8281L49.5625 38.625C49.4844 38.5781 49.375 38.5781 49.2812 38.625L40.25 43.8281C40.1563 43.875 40.1094 43.9844 40.1094 44.0781V54.5C40.1094 54.5937 40.1719 54.6875 40.25 54.7344L42.7187 56.1562C44.0625 56.8281 44.8906 56.0312 44.8906 55.25V44.9531C44.8906 44.8125 45 44.6875 45.1562 44.6875H46.2969C46.4375 44.6875 46.5625 44.7969 46.5625 44.9531V55.25C46.5625 57.0469 45.5937 58.0625 43.8906 58.0625C43.375 58.0625 42.9531 58.0625 41.8125 57.5L39.4375 56.1406C38.8594 55.7969 38.4844 55.1719 38.4844 54.5V44.0781C38.4844 43.4062 38.8437 42.7656 39.4375 42.4375L48.4688 37.2187C49.0469 36.8906 49.7969 36.8906 50.3594 37.2187L59.3906 42.4375C59.9688 42.7812 60.3438 43.4062 60.3438 44.0781V54.5C60.3438 55.1719 59.9844 55.8125 59.3906 56.1406L50.3594 61.3594C50.0937 61.5312 49.7656 61.625 49.4219 61.625ZM56.7188 51.3437C56.7188 49.3906 55.4062 48.875 52.625 48.5C49.8125 48.125 49.5312 47.9375 49.5312 47.2812C49.5312 46.7344 49.7656 46.0156 51.8437 46.0156C53.7031 46.0156 54.3906 46.4219 54.6719 47.6719C54.7031 47.7969 54.7969 47.875 54.9219 47.875H56.0938C56.1719 47.875 56.2344 47.8437 56.2813 47.7969C56.3281 47.7344 56.3594 47.6719 56.3438 47.5937C56.1563 45.4375 54.7344 44.4375 51.8437 44.4375C49.2656 44.4375 47.7344 45.5312 47.7344 47.3437C47.7344 49.3281 49.2656 49.8594 51.7344 50.1094C54.6875 50.4062 54.9219 50.8281 54.9219 51.4062C54.9219 52.4219 54.1094 52.8437 52.2031 52.8437C49.8125 52.8437 49.2812 52.25 49.1094 51.0625C49.0937 50.9375 48.9844 50.8437 48.8438 50.8437H47.6719C47.5313 50.8437 47.4062 50.9531 47.4062 51.1094C47.4062 52.625 48.2344 54.4375 52.1875 54.4375C55.0781 54.4375 56.7188 53.3125 56.7188 51.3437ZM65.2344 43.5156C65.2344 44.4687 64.4531 45.25 63.5 45.25C62.5469 45.25 61.7656 44.4687 61.7656 43.5156C61.7656 42.5312 62.5781 41.7812 63.5 41.7812C64.4375 41.7656 65.2344 42.5312 65.2344 43.5156ZM64.9531 43.5156C64.9531 42.7031 64.2969 42.0625 63.4844 42.0625C62.6875 42.0625 62.0312 42.7031 62.0312 43.5156C62.0312 44.3281 62.6875 44.9844 63.4844 44.9844C64.2969 44.9687 64.9531 44.3125 64.9531 43.5156ZM64.25 44.4844H63.8438C63.8281 44.3906 63.7656 43.8906 63.7656 43.875C63.7344 43.7656 63.7031 43.7031 63.5625 43.7031H63.2188V44.4844H62.8438V42.5312H63.5156C63.75 42.5312 64.2031 42.5312 64.2031 43.0469C64.2031 43.4062 63.9687 43.4844 63.8281 43.5312C64.0938 43.5469 64.1094 43.7187 64.1563 43.9687C64.1719 44.125 64.2031 44.3906 64.25 44.4844ZM63.8125 43.1094C63.8125 42.8437 63.625 42.8437 63.5313 42.8437H63.2188V43.3906H63.5156C63.7656 43.3906 63.8125 43.2187 63.8125 43.1094ZM21.4531 20.8437C21.4531 20.4219 21.2344 20.0469 20.875 19.8437L11.2969 14.3281C11.1406 14.2344 10.9531 14.1875 10.7656 14.1719H10.6719C10.4844 14.1719 10.3125 14.2344 10.1406 14.3281L0.578125 19.8437C0.21875 20.0469 0 20.4375 0 20.8437L0.015625 35.6875C0.015625 35.8906 0.125 36.0781 0.296875 36.1875C0.46875 36.2969 0.6875 36.2969 0.875 36.1875L6.5625 32.9219C6.92187 32.7031 7.14063 32.3281 7.14063 31.9219V24.9844C7.14063 24.5781 7.35938 24.1875 7.71875 23.9844L10.1406 22.5937C10.3281 22.4844 10.5156 22.4375 10.7187 22.4375C10.9219 22.4375 11.125 22.4844 11.2969 22.5937L13.7188 23.9844C14.0781 24.1875 14.2969 24.5781 14.2969 24.9844V31.9219C14.2969 32.3281 14.5156 32.7187 14.875 32.9219L20.5625 36.1875C20.7344 36.2969 20.9688 36.2969 21.1406 36.1875C21.3125 36.0937 21.4219 35.8906 21.4219 35.6875L21.4531 20.8437ZM73.8281 4.64061V32.2031C73.8281 32.6094 73.6094 33 73.25 33.2031L63.6719 38.7344C63.3125 38.9375 62.875 38.9375 62.5156 38.7344L52.9375 33.2031C52.5781 33 52.3594 32.6094 52.3594 32.2031V21.1406C52.3594 20.7344 52.5781 20.3437 52.9375 20.1406L62.5156 14.6094C62.875 14.4062 63.3125 14.4062 63.6719 14.6094L66.0625 15.9844C66.3281 16.1406 66.6719 15.9375 66.6719 15.6406V0.953114C66.6719 0.515614 67.1406 0.234364 67.5313 0.453114L73.2344 3.64061C73.5938 3.82811 73.8281 4.21874 73.8281 4.64061ZM66.6406 24.7812C66.6406 24.6719 66.5781 24.5781 66.5 24.5312L63.2188 22.625C63.125 22.5781 63.0156 22.5781 62.9219 22.625L59.6406 24.5312C59.5469 24.5781 59.5 24.6719 59.5 24.7812V28.5781C59.5 28.6875 59.5625 28.7812 59.6406 28.8281L62.9219 30.7187C63.0156 30.7656 63.125 30.7656 63.2031 30.7187L66.4844 28.8281C66.5781 28.7812 66.625 28.6875 66.625 28.5781V24.7812H66.6406ZM99.4219 24.6719C99.7812 24.4687 100 24.0781 100 23.6719V21C100 20.5937 99.7812 20.2031 99.4219 20L89.9063 14.4687C89.5469 14.2656 89.1094 14.2656 88.75 14.4687L79.1719 20C78.8125 20.2031 78.5938 20.5937 78.5938 21V32.0625C78.5938 32.4844 78.8125 32.8594 79.1719 33.0625L88.6875 38.4844C89.0312 38.6875 89.4688 38.6875 89.8281 38.4844L95.5781 35.2812C95.9688 35.0625 95.9688 34.5 95.5781 34.2812L85.9375 28.75C85.75 28.6406 85.6406 28.4531 85.6406 28.25V24.7812C85.6406 24.5781 85.75 24.3906 85.9375 24.2812L88.9375 22.5469C89.1094 22.4375 89.3438 22.4375 89.5156 22.5469L92.5156 24.2812C92.6875 24.3906 92.8125 24.5781 92.8125 24.7812V27.5C92.8125 27.9375 93.2969 28.2187 93.6875 28L99.4219 24.6719ZM87.3438 25.2187C87.2812 25.2656 87.2344 25.3281 87.2344 25.4062V27.5312C87.2344 27.6094 87.2812 27.6875 87.3438 27.7187L89.1875 28.7812C89.25 28.8281 89.3438 28.8281 89.4063 28.7812L91.25 27.7187C91.3125 27.6719 91.3594 27.6094 91.3594 27.5312V25.4062C91.3594 25.3281 91.3125 25.25 91.25 25.2187L89.4063 24.1562C89.3438 24.1094 89.25 24.1094 89.1875 24.1562L87.3438 25.2187ZM47.625 32.0156V21.0156C47.625 20.6094 47.375 20.2187 47.0156 20.0156L37.4688 14.5156C37.1406 14.3281 36.6875 14.2969 36.3125 14.5156L26.7656 20.0156C26.4063 20.2187 26.1562 20.5937 26.1562 21.0156V32.0156C26.1562 32.4531 26.4531 32.8281 26.7812 33.0156L36.3438 38.5156C36.7188 38.7344 37.1562 38.7187 37.5 38.5156L47.0312 33.0156C47.3125 32.8594 47.5156 32.5937 47.5938 32.2812C47.6094 32.2031 47.625 32.1094 47.625 32.0156ZM36.0156 12.5L35.8906 12.5781H36.0625L36.0156 12.5ZM47.9219 32.8437L47.8594 32.7344V32.875L47.9219 32.8437Z" fill="url(#paint0_linear_302_13)"/>
<defs>
<linearGradient id="paint0_linear_302_13" x1="100" y1="46.1142" x2="1.30721" y2="36.1189" gradientUnits="userSpaceOnUse">
<stop stop-color="#9C2CAD"/>
<stop offset="1" stop-color="#ED6374"/>
</linearGradient>
</defs>
</svg>
