<svg width="100" height="100" viewBox="0 0 100 100" fill="none" xmlns="http://www.w3.org/2000/svg">
<path d="M91.4062 9.8125H62.6875L61.2562 11.25V68.2L62.2875 75.6688H61.1562V76.4313H60.1969V75.475H58.2906V76.2375H57.3156V75.0906H55.8V76.0469H52.3437L46.0312 74.9V72.025H48.7094L49.6531 67.4312H58.175C58.4568 67.4312 58.727 67.3193 58.9263 67.1201C59.1255 66.9208 59.2375 66.6505 59.2375 66.3688V24.4625C59.2379 24.3231 59.2107 24.1851 59.1573 24.0563C59.104 23.9276 59.0257 23.8107 58.9268 23.7125C58.828 23.6142 58.7107 23.5366 58.5816 23.484C58.4525 23.4314 58.3143 23.405 58.175 23.4062H4.96873C4.68884 23.4071 4.42066 23.5186 4.22275 23.7165C4.02485 23.9144 3.9133 24.1826 3.91248 24.4625V66.375C3.91248 66.9594 4.38748 67.4375 4.97498 67.4375H14.3969L15.0219 72.0312H19.4219L8.79685 82.6563L6.59373 87.3438C6.59373 87.3438 15.7812 90.7906 27.4625 90.7906C39.1406 90.7906 57.7125 88.1125 60.2 88.1125H75.325V84.2812L74.8969 80.9469H80.3469C79.7219 81.2781 79.3469 81.7094 79.3469 82.1844V85.2406C79.3469 86.3031 81.2312 87.1562 83.5656 87.1562C85.8875 87.1562 87.7844 86.3125 87.7844 85.2438V82.1813C87.7844 81.125 85.8937 80.275 83.5656 80.275C82.9812 80.275 82.4312 80.3375 81.9281 80.4313V79.9H74.7719L74.6 78.5469H91.4219L91.4062 9.8125ZM7.7406 63.0313V27.2312H54.8344V63.0313H7.74373H7.7406Z" fill="url(#paint0_linear_107_9)"/>
<defs>
<linearGradient id="paint0_linear_107_9" x1="91.4218" y1="70.2832" x2="4.56086" y2="64.4606" gradientUnits="userSpaceOnUse">
<stop stop-color="#9C2CAD"/>
<stop offset="1" stop-color="#ED6374"/>
</linearGradient>
</defs>
</svg>
