<svg width="87" height="87" viewBox="0 0 87 87" fill="none" xmlns="http://www.w3.org/2000/svg">
<g clip-path="url(#clip0_10_358)">
<path d="M43.5 0.5C19.9414 0.5 0.862823 19.7452 0.862823 43.5C0.862823 67.2548 19.9414 86.5 43.5 86.5C67.0425 86.5 86.1372 67.2548 86.1372 43.5C86.1372 19.7452 67.0452 0.5 43.4866 0.5H43.5ZM43.5 2.38931C54.3763 2.38931 64.6211 6.67319 72.3208 14.4266C79.9981 22.1514 84.2931 32.6091 84.2613 43.5C84.2613 54.4731 80.0205 64.8038 72.3208 72.5734C68.5563 76.3924 64.0691 79.4237 59.1209 81.4904C54.1727 83.5571 48.8625 84.6178 43.5 84.6107C38.1375 84.6178 32.8273 83.5571 27.8791 81.4904C22.9309 79.4237 18.4437 76.3924 14.6793 72.5734C6.99825 64.85 2.69852 54.3926 2.72526 43.5C2.72526 32.5269 6.97957 22.1962 14.6658 14.4266C18.4288 10.6019 22.9176 7.56711 27.869 5.50009C32.8203 3.43307 38.1345 2.37547 43.5 2.38931ZM41.3581 17.5199C34.4163 19.3824 27.9904 22.9514 19.4254 32.7769C10.8603 42.6024 12.4836 50.7213 12.4836 50.7213C12.4836 50.7213 14.8486 45.1367 20.5326 39.2564C23.2336 36.4722 25.2358 35.5343 26.6225 35.5343C26.9148 35.5193 27.2071 35.564 27.4816 35.6656C27.7561 35.7671 28.0071 35.9235 28.2193 36.1251C28.4314 36.3267 28.6004 36.5694 28.7158 36.8383C28.8313 37.1073 28.8908 37.3969 28.8908 37.6896V57.6362C28.8908 59.6089 27.6169 60.0443 26.4424 60.0147C25.4481 60.0013 24.5236 59.6519 24.5236 59.6519C30.3608 68.1336 44.3305 69.3242 44.3305 69.3242L50.4606 62.7721L50.6004 62.8984L56.2146 67.6848C66.4889 61.5815 71.4446 50.2725 71.4446 50.2725C66.8544 55.1154 63.9411 56.2495 62.205 56.2495C60.6651 56.2361 60.0631 55.3384 60.0631 55.3384C59.9798 54.9192 59.84 48.8428 59.7836 42.769C59.7271 36.4829 59.7836 30.1861 60.0926 30.17C61.8691 26.8375 67.5263 20.1187 67.5263 20.1187C56.959 22.2043 51.2051 29.1326 51.2051 29.1326C49.4985 27.7889 46.0263 28.0119 46.0263 28.0119C47.6495 28.9069 49.2728 31.5111 49.2728 33.6664V54.8869C49.2728 54.8869 45.7306 58.0071 43.0028 58.0071C42.385 58.0128 41.7749 57.8695 41.2243 57.5892C40.6736 57.309 40.1987 56.9002 39.8396 56.3973C39.6245 56.1125 39.4458 55.8019 39.3075 55.4728V29.2697C38.9286 29.5461 38.4755 29.7024 38.0068 29.7185C37.4182 29.7185 36.8162 29.4256 36.4104 28.5709C36.1013 27.9259 35.9051 26.9611 35.9051 25.5475C35.9051 20.7181 41.3635 17.5119 41.3635 17.5119L41.3581 17.5199Z" fill="url(#paint0_linear_10_358)"/>
</g>
<defs>
<linearGradient id="paint0_linear_10_358" x1="86.1372" y1="64.7208" x2="1.43475" y2="59.511" gradientUnits="userSpaceOnUse">
<stop stop-color="#9C2CAD"/>
<stop offset="1" stop-color="#ED6374"/>
</linearGradient>
<clipPath id="clip0_10_358">
<rect width="86" height="86" fill="white" transform="translate(0.5 0.5)"/>
</clipPath>
</defs>
</svg>
